# xmcd CD database file
#
# Track frame offsets:
#	150
#	26262
#	42807
#	60392
#	80888
#	96955
#	115767
#	132602
#	155291
#	175127
#	189666
#	208472
#	226753
#	243660
#	268525
#	289069
#	311321
#	332307
#
# Disc length: 4722 seconds
#
# Revision: 0
# Processed by: cddbd v1.5.2PL0 Copyright (c) Steve Scherf et al.
# Submitted via: CDex 1.51
#
DISCID=f6127012
DTITLE=Various Artist - Bachata Merengue Salsa2009
DYEAR=1900
DGENRE=Salsa
TTITLE0=Cuanto mas - Antony Santos
TTITLE1=Me duele el alma - Hector Acosta
TTITLE2=Amante y esposo - charlie Dyen
TTITLE3=Dime quien - Aventura
TTITLE4=volvio el amor - Toño Rosario
TTITLE5=Con cotorro no - el Sujeto
TTITLE6=Si se equivoca - Power Power
TTITLE7=Extrañandote - Michel
TTITLE8=Suelta mi mano - Asdrubal
TTITLE9=Virgen - Adolecente
TTITLE10=Todo para ti - Zacarias
TTITLE11=Regalame una noche - anibal Rosario
TTITLE12=Yo no me voy de aqui - Pacole
TTITLE13=Cuando se acaba - Megabanda
TTITLE14=por tu amor - Sexappeal
TTITLE15=Solo con un beso - Puerto Ricann power
TTITLE16=Se acabo lo bonito - Luis Miguel del amargue
TTITLE17=Como vaso desechable - El chaval
EXTD=
EXTT0=
EXTT1=
EXTT2=
EXTT3=
EXTT4=
EXTT5=
EXTT6=
EXTT7=
EXTT8=
EXTT9=
EXTT10=
EXTT11=
EXTT12=
EXTT13=
EXTT14=
EXTT15=
EXTT16=
EXTT17=
PLAYORDER=
